<?xml version="1.0" standalone="no"?>
<!DOCTYPE svg PUBLIC "-//W3C//DTD SVG 1.1//EN" "http://www.w3.org/Graphics/SVG/1.1/DTD/svg11.dtd">
<svg xmlns="http://www.w3.org/2000/svg">
<metadata>Copyright (C) 2020 by original authors @ fontello.com</metadata>
<defs>
<font id="fontello" horiz-adv-x="1000" >
<font-face font-family="fontello" font-weight="400" font-stretch="normal" units-per-em="1000" ascent="850" descent="-150" />
<missing-glyph horiz-adv-x="1000" />
<glyph glyph-name="group-19520" unicode="&#xe800;" d="M572 389l-445 445a55 55 0 0 1-78 0l-32-33a55 55 0 0 1 0-77l373-374-374-374a55 55 0 0 1 0-77l33-33a55 55 0 0 1 77 0l446 446a55 55 0 0 1 0 77z" horiz-adv-x="587" />

<glyph glyph-name="group-19521" unicode="&#xe801;" d="M16 389l445 445a55 55 0 0 0 77 0l33-33a55 55 0 0 0 0-77l-374-374 375-374a55 55 0 0 0 0-77l-33-33a55 55 0 0 0-78 0l-445 445a55 55 0 0 0 0 78z" horiz-adv-x="587" />

<glyph glyph-name="minus-(3)" unicode="&#xe802;" d="M952 749h-902c-28 0-50 23-50 50 0 28 22 50 50 50h902c27 0 50-22 50-50 0-27-23-50-50-50z m0 0" horiz-adv-x="1000" />

<glyph glyph-name="cloud-computing-(5)" unicode="&#xe863;" d="M858 577a341 341 0 0 1-676-67c0-8 1-15 1-24a205 205 0 0 1 22-408h250v95a68 68 0 0 0-71 112l91 91a67 67 0 0 0 31 18l8 1a67 67 0 0 0 32-3l11-5a68 68 0 0 0 15-11l91-91a68 68 0 0 0 0-96 70 70 0 0 0-71-16v-95h250a250 250 0 0 1 16 499z m-227-324l-91 91a23 23 0 0 1-7 5h0a22 22 0 0 1-12 1 21 21 0 0 1-3-1 22 22 0 0 1-10-5l-91-91a23 23 0 0 1 32-32l52 52v-400a23 23 0 0 1 45 0v400l53-52a23 23 0 0 1 32 32h0z" horiz-adv-x="1092" />

<glyph glyph-name="earth-grid-symbol" unicode="&#xe864;" d="M908 638c-7 11-15 22-24 32a499 499 0 0 1-384 180h-1l-2 0a499 499 0 0 1-381-180q-13-15-24-32a498 498 0 0 1 0-576c8-11 16-22 24-32a499 499 0 0 1 381-180l2 0h1a499 499 0 0 1 384 180c9 11 17 21 24 32a498 498 0 0 1 0 576z m-554 147a468 468 0 0 1-111-187 477 477 0 0 0-94 47 460 460 0 0 0 205 140z m-229-171a527 527 0 0 1 107-54 797 797 0 0 1-28-206h-163a456 456 0 0 0 84 260z m-82-301h162a788 788 0 0 1 27-173 524 524 0 0 1-107-54 456 456 0 0 0-82 227z m106-258a480 480 0 0 0 94 47 467 467 0 0 1 111-187 460 460 0 0 0-205 140z m331-163c-85 12-157 98-199 223a758 758 0 0 0 199 30z m0 294a781 781 0 0 1-210-33 761 761 0 0 0-24 160h234z m0 168h-235a774 774 0 0 0 25 193 781 781 0 0 1 210-33v-160z m0 201a757 757 0 0 0-198 30c41 125 113 211 198 223z m479-201h-166a797 797 0 0 1-27 205 526 526 0 0 1 109 55 456 456 0 0 0 84-260z m-108 291a479 479 0 0 0-96-48 467 467 0 0 1-112 189 460 460 0 0 0 208-141z m-330 162c83-13 155-99 195-222a759 759 0 0 0-195-30z m0-293a783 783 0 0 1 207 32 773 773 0 0 0 24-192h-231z m0-201h231a764 764 0 0 0-24-159 783 783 0 0 1-207 32l0 127z m0-420v252a760 760 0 0 0 195-30c-40-123-112-209-195-222z m122 21a466 466 0 0 1 112 189 479 479 0 0 0 96-48 460 460 0 0 0-208-141z m232 172a525 525 0 0 1-109 55 788 788 0 0 1 26 172h165a455 455 0 0 0-82-227z" horiz-adv-x="1000" />

<glyph glyph-name="funds" unicode="&#xe866;" d="M854 430c0 0 0 0 0 0a25 25 0 0 1-1 3h0a25 25 0 0 1-1 3l0 1c0 1-1 1-1 2l-1 1 0 0c0 1-1 1-1 2l0 0a25 25 0 0 1-2 2l-1 1a25 25 0 0 1-2 2l0 0a26 26 0 0 1-3 2l-372 211 214 135 359-204-151-95a25 25 0 1 1 27-43l187 118a25 25 0 0 1-1 43l-409 233a25 25 0 0 1-26-1l-263-165 0 0-131-83 0 0-263-166a25 25 0 0 1 1-43l409-232a25 25 0 0 1 26 0l187 118a25 25 0 1 1-27 43l-174-110-359 204 214 135 383-218v-288a25 25 0 0 1 39-22l131 83a25 25 0 0 1 12 22v303s0 0 0 0q0 1 0 3z m-131-343v257a25 25 0 0 1-13 22l-373 212 83 52 359-204-31-20a25 25 0 1 1 27-43l28 18v-243z m355 426l-187-118a25 25 0 1 1 27-43l187 118a25 25 0 1 1-27 43z m-470-296l-174-110-396 225a25 25 0 0 1-25-44l409-232a25 25 0 0 1 26 0l187 118a25 25 0 0 1-27 43z m470 195l-187-118a25 25 0 1 1 27-43l187 118a25 25 0 1 1-27 43z m-470-296l-174-110-396 225a25 25 0 0 1-25-44l409-233a25 25 0 0 1 26 1l187 118a25 25 0 0 1-27 43z m470 194l-187-117a25 25 0 1 1 27-43l187 118a25 25 0 1 1-27 42z m-470-296l-174-109-396 225a25 25 0 0 1-25-44l409-233a25 25 0 0 1 26 1l187 118a25 25 0 0 1-27 43z" horiz-adv-x="1117" />

<glyph glyph-name="group-20183" unicode="&#xe869;" d="M560 191a24 24 0 1 1 6-17 24 24 0 0 1-6 17z m596 476a24 24 0 1 1-40-24 316 316 0 0 0-52-378l-18-18a88 88 0 0 1-20 31l-241 242a162 162 0 0 1 43 31l46 46a24 24 0 0 1-33 33l-46-46a115 115 0 0 0-82-34h-92a24 24 0 0 1-17-7l-71-71a54 54 0 0 0-76 77l162 162a316 316 0 0 0 375 52 24 24 0 1 1 23 42 365 365 0 0 1-224 42 358 358 0 0 1-191-88 362 362 0 0 1-496-527l9-9a24 24 0 0 1 5-4 88 88 0 0 1 88-81c1 0 3 0 4 0 0-2 0-3 0-4a89 89 0 0 1 88-88c1 0 3 0 4 0 0-2 0-3 0-4a89 89 0 0 1 88-89c2 0 3 0 4 0a89 89 0 0 1 151-66l33 33 44-44a89 89 0 0 1 151 67c2 0 3 0 5 0a88 88 0 0 1 88 92c1 0 3 0 4 0a89 89 0 0 1 88 92c2 0 3 0 4 0a89 89 0 0 1 82 55 24 24 0 0 1 6 4l46 46a363 363 0 0 1 58 435z m-948-482a42 42 0 0 0-29 71l40 40a42 42 0 0 0 59-59l-40-40a41 41 0 0 0-30-12z m63-80a42 42 0 0 0 0 59l40 40h0a42 42 0 0 0 59-59l-40-40a42 42 0 0 0-59 0z m92-92a42 42 0 0 0 0 59l40 40h0a42 42 0 0 0 59-59l-40-40a42 42 0 0 0-59 0z m191-52l-40-40a42 42 0 1 0-59 58l40 41h0a42 42 0 0 0 59-59z m439 225a42 42 0 0 0-59 0l-98 98h0l-92 92a24 24 0 0 1-33-33l190-190a42 42 0 1 0-59-59l-190 190a24 24 0 0 1-33-33l92-92h0l98-98a42 42 0 1 0-59-59l-98 98a24 24 0 0 1-6 4l-27 28a24 24 0 0 1-34-33l131-131a42 42 0 1 0-59-59l-49 50a89 89 0 0 1-83 120c-1 0-3 0-4 0a89 89 0 0 1-88 92c-1 0-3 0-4 0a89 89 0 0 1-88 92c-1 0-3 0-4 0a89 89 0 0 1-151 66l-40-40a89 89 0 0 1-13-17 315 315 0 0 0 435 454l-144-144a101 101 0 0 1 143-143l63 64h83a165 165 0 0 1 21 1l259-259a42 42 0 0 0 0-59z" horiz-adv-x="1203" />

<glyph glyph-name="key_icn" unicode="&#xe86a;" d="M1023-150a23 23 0 0 1 21 14l38 89a22 22 0 0 1-4 25l-522 511a276 276 0 0 1-70 279 288 288 0 0 1-403 0 276 276 0 0 1 0-395 285 285 0 0 1 201-81 292 292 0 0 1 103 19l115-113a22 22 0 0 1 17-7l125 3 23-165a23 23 0 0 1 19-19l133-25 31-113a23 23 0 0 1 21-16l151-6z m-570 886a232 232 0 0 0 55-245 22 22 0 0 1 6-24l520-510-26-61-118 4-30 110a23 23 0 0 1-18 17l-132 25-24 168a23 23 0 0 1-23 20l-136-3-119 116a23 23 0 0 1-25 5 245 245 0 0 0-99-21 239 239 0 0 0-168 69 231 231 0 0 0 0 331 242 242 0 0 0 337 0z m-183-151a82 82 0 0 1 0 118 88 88 0 0 1-120 0 82 82 0 0 1 0-118 86 86 0 0 1 120 0z m-33 86a37 37 0 0 0 0-54 40 40 0 0 0-54 0 37 37 0 0 0 0 54 39 39 0 0 0 54 0z" horiz-adv-x="1084" />

<glyph glyph-name="love" unicode="&#xe86b;" d="M730 702l-8 117a29 29 0 0 1-7 17 30 30 0 0 1-17 7l-117 7a22 22 0 0 1-23-20s0 0 0 0a22 22 0 0 1 20-23l72-4-91-92a234 234 0 0 1-380-139 234 234 0 0 1 34-461v-99h-74a22 22 0 0 1 0-43h74v-98a22 22 0 0 1 43 0v98h73a22 22 0 1 1 0 43h-73v99a235 235 0 0 1 209 194 234 234 0 0 1 125 376l91 91 5-73a22 22 0 0 1 43 1c1 1 1 2 1 2z m-496-549a191 191 0 0 0-58 374 234 234 0 0 1 234-230h9a192 192 0 0 0-185-144z m191 188h-15a191 191 0 0 0-191 190q0 3 0 5h15a192 192 0 0 0 192-192c0-1-1-2-1-3z m170 145a191 191 0 0 0-50-89v-1a190 190 0 0 0-77-46 234 234 0 0 1-234 230h-9a191 191 0 1 0 370-94z" horiz-adv-x="730" />

<glyph glyph-name="magnifying-glass" unicode="&#xe86c;" d="M991-99l-243 243a427 427 0 1 1-42-42l243-243a30 30 0 0 1 21-9 29 29 0 0 1 21 9 30 30 0 0 1 0 42z m-931 523a367 367 0 1 0 366-367 367 367 0 0 0-366 367z" horiz-adv-x="1000" />

<glyph glyph-name="more-(1)" unicode="&#xe86d;" d="M133 583a133 133 0 1 1-133 134 134 134 0 0 1 133-134z m0-466a133 133 0 1 1 134-134 134 134 0 0 1-134 134z m0 366a133 133 0 1 1 134-133 134 134 0 0 1-134 133z" horiz-adv-x="267" />

<glyph glyph-name="negative-sign" unicode="&#xe86e;" d="M5546 850h-5076a501 501 0 0 1 0-1000h5076a501 501 0 0 1 0 1000z" horiz-adv-x="6015" />

<glyph glyph-name="pencil-(1)" unicode="&#xe870;" d="M1-124l34 131 34 130c0 1 1 1 1 2a19 19 0 0 0 1 1 21 21 0 0 0 4 6h0l604 604 82 83a60 60 0 0 0 84 0l138-138a60 60 0 0 0 0-84l-83-82-604-604h0a21 21 0 0 0-6-4c0-1-1-1-1-1s-1-1-2-1l-130-34-131-34a21 21 0 0 0-5-1 21 21 0 0 0-20 26z m157 52l83 22-141 141-22-83 30-30z m698 615l-67 67-574-574 67-67z m-737-411l66-67 575 574-67 67z m834 534l-137 137a18 18 0 0 1-26 0l-67-68 111-111 51-51 68 67a18 18 0 0 1 0 26z m-842-750l-14 13-31 32-16-61z m0 0" horiz-adv-x="1000" />

<glyph glyph-name="person_icn" unicode="&#xe871;" d="M999 350a502 502 0 1 1-170-375 19 19 0 0 1 2 2 499 499 0 0 1 168 373z m-957 0a457 457 0 1 0 771-332c-155 65-183 96-188 104v29a287 287 0 0 1 60 110 89 89 0 0 1 16 118v87c0 117-73 184-199 184-124 0-198-69-198-184v-87a88 88 0 0 1-15-62 89 89 0 0 1 30-56 288 288 0 0 1 60-110v-30c-5-8-34-38-192-104a456 456 0 0 0-145 333z m181-364c160 68 190 102 198 125a22 22 0 0 1 0 6v42a21 21 0 0 1-6 15 244 244 0 0 0-57 105 21 21 0 0 1-8 12 47 47 0 0 0-9 68 21 21 0 0 1 5 13v94c0 92 55 142 156 142 102 0 156-49 156-142v-94a21 21 0 0 1 5-13 47 47 0 0 0-9-68 21 21 0 0 1-8-12 244 244 0 0 0-57-105 21 21 0 0 1-6-15v-42a22 22 0 0 1 1-6c4-14 14-46 193-124a454 454 0 0 0-554-1z" horiz-adv-x="999" />

<glyph glyph-name="plus-sign" unicode="&#xe872;" d="M922 428h-344v344a78 78 0 0 1-156 0v-344h-344a78 78 0 0 1 0-156h344v-344a78 78 0 0 1 156 0v344h344a78 78 0 1 1 0 156z" horiz-adv-x="1000" />

<glyph glyph-name="star-half-empty" unicode="&#xe873;" d="M1047 470q-5 17-34 22l-316 46-142 286q-13 26-31 26-18 0-30-26l-142-286-317-46q-28-5-34-22t15-38l229-223-54-315a49 49 0 0 1 4-32 23 23 0 0 1 21-12 56 56 0 0 1 25 8l283 149 283-149a56 56 0 0 1 25-8 23 23 0 0 1 22 12 49 49 0 0 1 3 32l-54 315 229 223q21 20 15 38z m-300-203l-31-29 8-42 38-224-201 106-37 20v606l101-202 18-38 42-7 224-32z" horiz-adv-x="1048" />

<glyph glyph-name="telephone-call" unicode="&#xe874;" d="M658 227l107-141a12 12 0 0 0-1-15c-46-56-95-92-144-105-118-32-201 78-201 79l-301 359c-3 3-70 75-57 167 10 65 59 122 144 169a12 12 0 0 0 15-2l129-155a12 12 0 0 0 0-15l-69-81a11 11 0 0 1 0-13l235-282a11 11 0 0 1 11-3 22 22 0 0 1 5 2l114 40a12 12 0 0 0 13-4z m-118-57a31 31 0 0 0-7-3 35 35 0 0 0-36 10l-235 282a35 35 0 0 0 0 44l63 73-117 139c-73-43-115-93-123-148-12-79 48-144 51-147l301-361c1-1 74-98 177-70a264 264 0 0 1 126 90l-95 127z" horiz-adv-x="799" />

<glyph glyph-name="union-2" unicode="&#xe875;" d="M322-150a108 108 0 0 0-107 108v31a49 49 0 0 1-50 49 108 108 0 0 0-107 108v49h-9a46 46 0 0 0-37 20 106 106 0 0 0-3 93l49 141a406 406 0 0 0 406 401 406 406 0 0 0 405-406 404 404 0 0 0-66-222 407 407 0 0 0-153-138v-126a108 108 0 0 0-108-108z m-206 594a28 28 0 0 0-1-9l-50-146a92 92 0 0 1-6-35h28a29 29 0 0 0 29-29v-79a49 49 0 0 1 49-49 108 108 0 0 0 108-108v-31a49 49 0 0 1 49-49h220a49 49 0 0 1 49 49v144a29 29 0 0 0 17 27 348 348 0 0 1 203 315 348 348 0 0 1-348 348 348 348 0 0 1-347-348z m483-238a29 29 0 0 0-13 3l-122 65-123-65a29 29 0 0 0-30 3 30 30 0 0 0-12 28l23 136-98 97a29 29 0 0 0-8 30 29 29 0 0 0 24 19l136 20 61 124a29 29 0 0 0 27 16 29 29 0 0 0 26-16l61-124 137-20a29 29 0 0 0 23-19 29 29 0 0 0-7-30l-99-97 23-134a29 29 0 0 0 1-7 29 29 0 0 0-29-29z m-122 127l83-44-15 92a30 30 0 0 0 8 26l67 66-93 14a29 29 0 0 0-22 16l-41 84-42-84a29 29 0 0 0-22-16l-93-14 67-66a29 29 0 0 0 9-26l-16-92 83 44a29 29 0 0 0 14 3 29 29 0 0 0 13-3z" horiz-adv-x="869" />

<glyph glyph-name="union-3" unicode="&#xe876;" d="M132-150a131 131 0 0 0-132 132v642a131 131 0 0 0 132 132h76v-38h-76a93 93 0 0 1-94-94v-642a93 93 0 0 1 94-94h906a93 93 0 0 1 94 94v642a93 93 0 0 1-94 94h-76v38h76a131 131 0 0 0 132-132v-642a131 131 0 0 0-132-132z m19 113a38 38 0 0 0-38 38v566h944v-566a38 38 0 0 0-38-38z m0 38h868v528h-868z m453 75v151h151v-151z m37 38h76v75h-76z m-226-38v151h151v-151z m38 38h75v75h-75z m-227-38v151h151v-151z m38 38h75v75h-75z m528 189v151h151v-151z m38 37h75v76h-75z m-227-37v151h151v-151z m38 37h76v76h-76z m-226-37v151h151v-151z m37 37h76v76h-76z m340 283v227h151v-226z m38 38h75v151h-75z m-189-38v38h38v-38z m-75 0v38h37v-38z m-76 0v38h38v-38z m-264 0v227h151v-226z m38 38h75v151h-75z m132 56v38h377v-38z" horiz-adv-x="1170" />

<glyph glyph-name="group-20185" unicode="&#xe877;" d="M250 17h-177a73 73 0 0 0-73 73 73 73 0 0 0 26 55 279 279 0 0 1 99 214v116a292 292 0 0 0 292 292 290 290 0 0 0 66-8 290 290 0 0 1-25-117 292 292 0 0 1 251-289 279 279 0 0 1 98-208 73 73 0 0 0 26-55 73 73 0 0 0-73-73h-177a167 167 0 0 0-166-167 167 167 0 0 0-167 167z m708 625a208 208 0 1 0-208 208 208 208 0 0 0 208-208z m0 0" horiz-adv-x="958" />

<glyph glyph-name="notification-(7)-(7)" unicode="&#xe879;" d="M273 32h-193a80 80 0 0 0-52 140 305 305 0 0 1 108 233v127a316 316 0 0 0 72 202 308 308 0 0 0 115 87 326 326 0 0 0 132 29 305 305 0 0 0 137-29 278 278 0 0 0 99-83c77-101 74-179 82-339a304 304 0 0 1 108-227 80 80 0 0 0-52-140h-193a182 182 0 1 0-363 0z" horiz-adv-x="909" />

<glyph glyph-name="group-20282" unicode="&#xe87a;" d="M847 40a15 15 0 0 1-15-15v-137a8 8 0 0 0-8-8h-78v288a15 15 0 0 1-30 0v-289h-158l46 51a26 26 0 0 1 6 21v0l-44 259 12 18a33 33 0 0 1 21-9 26 26 0 0 1 23 14h0l46 92 105-40a102 102 0 0 0 59-93v-98a15 15 0 1 1 30 0v99a131 131 0 0 1-78 119l0 0-175 68v41a138 138 0 0 1 52 90 63 63 0 0 1 38 15 63 63 0 0 1 6 88v55a181 181 0 1 1-363 0v-56a59 59 0 0 1-15-40 62 62 0 0 1 21-47 63 63 0 0 1 38-15 136 136 0 0 1 54-92v-39l-175-68 0 0a131 131 0 0 1-77-119v-306a38 38 0 0 1 37-37h140a15 15 0 1 1 0 29h-31v289a15 15 0 1 1-30 0v-289h-78a8 8 0 0 0-9 8v306a102 102 0 0 0 60 92l105 41 46-93a26 26 0 0 1 23-14 33 33 0 0 1 21 9l12-18-44-259v0a26 26 0 0 1 6-21l46-51h-58a15 15 0 1 1 0-29h391a38 38 0 0 1 37 38v137a15 15 0 0 1-15 15z m-206 296l-44-86-51 37 53 66z m-87-91l-11-17h-37l-11 17 29 21z m-85 130v28a149 149 0 0 1 56-11 138 138 0 0 1 55 12v-29l-56-68z m221 198a33 33 0 0 0-11-25 34 34 0 0 0-17-7v65a33 33 0 0 0 28-32z m-306-32a33 33 0 0 0-28 32 35 35 0 0 0 28 32z m1 94a72 72 0 0 1-14-3v37a152 152 0 1 0 304 0v-35a65 65 0 0 1-13 2c0 14 0 12-46 61a26 26 0 0 1-33 4 282 282 0 0 0-171-46 26 26 0 0 1-27-20z m28-106v97a313 313 0 0 1 183 49c21-23 33-35 37-39v-107a110 110 0 0 0-220 0z m39-279l-44 86 42 16 53-65z m16-302l43 251h27l43-251-57-61z" horiz-adv-x="1000" />

<glyph glyph-name="group-20283" unicode="&#xe87b;" d="M743 287l0 0-176 68a9 9 0 0 0-6 9v42a145 145 0 0 1 17 16h50a33 33 0 0 1 33 34v49a74 74 0 0 1 0 142v5a31 31 0 0 1-15 27v51a81 81 0 0 1-75 80 127 127 0 0 1-138 32 349 349 0 0 0-89-22 115 115 0 0 1-58-214 63 63 0 0 1 44-106 140 140 0 0 1 57-96v-40a10 10 0 0 0-6-9l-176-68 0 0a135 135 0 0 1-80-124v-271a42 42 0 0 1 42-42h614a42 42 0 0 1 42 42v107a15 15 0 0 1-29 0v-107a13 13 0 0 0-13-13h-79v182a15 15 0 0 1-29 0v-182h-97l72 172 0 1a72 72 0 0 1-5 57c-5 11-10 21-15 30l6 4a49 49 0 0 1 23 46l-13 105 88-34a145 145 0 0 0 45-39 88 88 0 0 0 17-57v-96a15 15 0 1 1 29 0v95a135 135 0 0 1-80 124z m-210 135a113 113 0 0 0-28-12 40 40 0 0 1 8 12z m-57 5a11 11 0 1 0 10 10 11 11 0 0 0-10-11z m152 25h-29a141 141 0 0 1 8 18 31 31 0 0 1 10-2h13l2 0v-12a4 4 0 0 0-4-4z m2 202a2 2 0 0 0 2-2v-153a2 2 0 0 0-2-1h-14a2 2 0 0 0-1 1v153a2 2 0 0 0 1 2h14z m31-118v80a45 45 0 0 0 0-80z m-397 198a86 86 0 0 0 80 57c49 0 96 30 136 30a90 90 0 0 0 72-33 15 15 0 0 1 12-7h0a52 52 0 0 0 52-51v-47a31 31 0 0 1-28-19l-23 14a50 50 0 0 1-49 1 441 441 0 0 0-172-60 86 86 0 0 0-80 115z m53-140c3-1 9-2 12-2v-62a34 34 0 0 0-12 64z m41-75v72a504 504 0 0 1 172 62 21 21 0 0 0 20 0c29-17 32-18 35-26v-126a111 111 0 0 0-20-49h-52a40 40 0 1 1-65-44 113 113 0 0 0-90 110z m173-130v-25a39 39 0 0 1 24-36v-59c-11-16-115-7-133-14a15 15 0 0 1-8-18c3-8 8-2 16 0 10 4 105-15 114-8l-37-350h-68l-37 348c11-7 146-1 159-5 7-2-28 7-25 15a15 15 0 0 1-10 18c-20 6-119-2-131 14l-4 58 0 0a39 39 0 0 1 25 36v25a149 149 0 0 1 115 1z m-377-497v271a106 106 0 0 0 62 96l86 34c0-1-13-104-13-105a49 49 0 0 1 23-45l6-4c-5-9-10-19-16-30a72 72 0 0 1-4-57l0-1 72-172h-96v182a15 15 0 0 1-29 0v-182h-78a13 13 0 0 0-13 13z m248-13l-76 183a43 43 0 0 0 2 34c6 12 13 23 18 33a25 25 0 0 1-9 33c-9 5-20 10-19 24l15 119 5 2 25 9 46-437z m226 307c1-14-10-19-19-24a25 25 0 0 1-8-34c5-9 11-21 17-33a43 43 0 0 0 3-33l-77-183h-8l47 438 29-12z m0 0" horiz-adv-x="1000" />

<glyph glyph-name="union-7" unicode="&#xe87c;" d="M849-146l-123 101h-277a82 82 0 0 0-82 83v171a324 324 0 0 0-45-4 323 323 0 0 0-194 66l-83-22a19 19 0 0 0-20 6 20 20 0 0 0-3 21l33 72a319 319 0 0 0-55 180 322 322 0 0 0 43 161 20 20 0 0 0 27 8 20 20 0 0 0 7-27 283 283 0 0 1-38-142 281 281 0 0 1 54-167 20 20 0 0 0 2-19l-20-45 52 14a20 20 0 0 0 18-4 280 280 0 0 1 177-62 284 284 0 0 1 284 283 284 284 0 0 1-284 283 283 283 0 0 1-141-38 20 20 0 0 0-27 8 20 20 0 0 0 7 26 322 322 0 0 0 161 43 323 323 0 0 0 323-322c0-10-1-20-2-29h275a82 82 0 0 0 82-82v-379a82 82 0 0 0-82-82h-37v-86a20 20 0 0 0-11-18 20 20 0 0 0-9-2 20 20 0 0 0-12 4z m-443 362v-179a43 43 0 0 1 43-43h276c10 0 15 0 20-4l97-79v64a20 20 0 0 0 19 19h57a43 43 0 0 1 43 43v379a43 43 0 0 1-43 43h-281a323 323 0 0 0-231-242z m167-126a20 20 0 0 0-10 26l23 53a20 20 0 0 0-11 18 20 20 0 0 0 20 19h8l63 144a20 20 0 0 0 18 12 20 20 0 0 0 18-12l63-144h7a20 20 0 0 0 20-19 20 20 0 0 0-11-18l23-53a20 20 0 0 0-10-26 20 20 0 0 0-8-2 20 20 0 0 0-18 12l-29 67h-111l-29-67a20 20 0 0 0-18-12 19 19 0 0 0-8 2z m72 116h77l-38 87z m-227 169a224 224 0 0 0-97 104 224 224 0 0 0-96-104 19 19 0 0 0-10-3 20 20 0 0 0-17 10 20 20 0 0 0 8 27 185 185 0 0 1 94 134h-69a20 20 0 0 0-19 20 20 20 0 0 0 19 19h71v82a20 20 0 0 0 19 19 20 20 0 0 0 20-19v-82h88a20 20 0 0 0 20-19 20 20 0 0 0-20-20h-86a184 184 0 0 1 94-134 20 20 0 0 0 7-27 19 19 0 0 0-17-10 19 19 0 0 0-9 3z m-324 353a20 20 0 0 0-5 14 20 20 0 0 0 5 14 20 20 0 0 0 14 5 20 20 0 0 0 14-5 20 20 0 0 0 6-14 20 20 0 0 0-6-14 20 20 0 0 0-14-6 20 20 0 0 0-14 6z" horiz-adv-x="1000" />

<glyph glyph-name="tick-(4)" unicode="&#xe87e;" d="M985 703c-19 19-51 19-70 0l-599-599-231 230c-19 19-51 19-70 0-20-20-20-51 0-71l265-266c20-19 52-19 71 0l634 635c20 19 20 51 0 71z" horiz-adv-x="1000" />

<glyph glyph-name="notifications-button" unicode="&#xe87f;" d="M425-150a100 100 0 0 1 100 100h-200a100 100 0 0 1 100-100z m325 300v275a322 322 0 0 1-250 315v35a75 75 0 0 1-150 0v-35a322 322 0 0 1-250-315v-275l-100-100v-50h850v50z" horiz-adv-x="850" />

<glyph glyph-name="group-19887" unicode="&#xe884;" d="M1109 651a148 148 0 0 1-109 45h-135l-30 82a112 112 0 0 1-42 51 107 107 0 0 1-62 21h-308a107 107 0 0 1-62-21 112 112 0 0 1-42-51l-30-82h-135a148 148 0 0 1-109-45 148 148 0 0 1-45-109v-538a148 148 0 0 1 45-109 148 148 0 0 1 109-45h846a154 154 0 0 1 154 154v538a148 148 0 0 1-45 109z m-342-568a259 259 0 0 0-190-79 259 259 0 0 0-190 79 268 268 0 0 0 0 380 259 259 0 0 0 190 79 259 259 0 0 0 190-79 268 268 0 0 0 0-380z m-190 363a173 173 0 1 1 122-50 167 167 0 0 1-122 50z" horiz-adv-x="1154" />

<glyph glyph-name="mail" unicode="&#xe886;" d="M917 725h-834c-46 0-83-37-83-83v-584c0-46 37-83 83-83h834c46 0 83 37 83 83v584c0 46-37 83-83 83z m-834-42h834c3 0 5-1 8-1-72-66-311-285-395-361-6-6-17-13-30-13s-24 7-30 13c-84 76-323 295-395 361 3 0 5 1 8 1z m-41-625v584c0 4 1 8 2 11 55-50 222-203 330-301-107-93-274-251-330-304-1 3-2 7-2 10z m875-41h-834c-3 0-6 1-9 2 58 54 226 214 332 304 13-12 26-24 36-33 17-15 37-23 58-23s41 8 58 23c10 9 23 21 37 33 106-90 274-250 331-304-3-1-6-2-9-2z m41 41c0-3-1-7-2-10-55 53-222 211-330 304 108 98 275 251 330 301 1-3 2-7 2-11v-584z" horiz-adv-x="1000" />

<glyph glyph-name="eye-(1)" unicode="&#xe887;" d="M996 362c-8 11-197 280-496 280-257 0-485-267-495-278-7-8-7-20 0-27 10-12 238-279 495-279s486 267 495 279c6 7 7 17 1 25z m-496-262c-206 0-401 196-451 250 50 54 245 250 451 250 241 0 411-196 452-249-48-52-244-251-452-251z m0 417c-92 0-167-75-167-167s75-167 167-167 167 75 167 167-75 167-167 167z m0-292c-69 0-125 56-125 125s56 125 125 125 125-56 125-125-56-125-125-125z" horiz-adv-x="1000" />

<glyph glyph-name="down-arrow-(1)" unicode="&#xe889;" d="M988 609c-16 16-43 16-59 0l-429-429-429 429c-16 16-42 16-59 0s-16-43 0-59l459-459c8-8 18-12 29-12 11 0 21 4 30 12l458 459c16 16 16 42 0 59z" horiz-adv-x="1000" />

<glyph glyph-name="goal-(4)-1" unicode="&#xe88b;" d="M698 365h-27v307c0 7-6 13-13 13s-13-6-13-13v-9h-177c0 0-1 0-1 0 0 0 0 0 0 0-1 0-1 0-1 0 0 0 0 0-1 0 0 0 0 0 0 0 0 0-1 0-1 0 0 0 0 0 0 0-1 0-1-1-1-1 0 0 0 0-1 0 0 0 0 0 0 0 0 0-1 0-1 0 0-1 0-1 0-1-1 0-1 0-1 0 0 0 0 0-1-1 0 0 0 0 0 0 0 0 0 0 0 0 0 0-1 0-1 0 0-1 0-1 0-1 0 0 0 0-1 0 0-1 0-1 0-1 0 0 0 0 0-1-1 0-1 0-1 0 0 0 0-1 0-1 0 0 0 0 0 0-1 0-1-1-1-1 0 0 0 0 0 0 0-1 0-1 0-1 0 0 0 0 0-1 0 0 0 0 0 0 0-1 0-1-1-1 0 0 0-1 0-1 0 0 0 0 0 0 0-1 0-1 0-1 0 0 0 0 0-1 0 0 0 0 0 0 0 0 0 0 0-1 0 0 0 0 0 0 0 0 0 0 1-1 0 0 0 0 0 0 0-1 0-1 0-1 0 0 0 0 0-1 0 0 0 0 0 0 0 0 1-1 1-1 0 0 0 0 0 0 0-1 0-1 0-1 0 0 0 0 0-1 1 0 1 0 1 0 0 0 0-1 0-1 0 0 1 0 1 0 0 0 0 0 0 0l43-49-42-45c0 0 0 0 0 0-3-3-5-7-5-11 0-7 6-13 14-13h177v-158h-94c-13 0-24-11-24-25v-98h-159c-14 0-25-11-25-24v-98h-147c-13 0-24-11-24-25v-98h-135c-21 0-37-16-37-37v-73c0-20 16-37 37-37h661c20 0 37 16 37 37v441c0 20-17 37-37 37z m-199 185l30 32c2 3 3 6 3 10 0 3-1 7-3 10l-31 34h147v-86h-146z m211-663l0 0c0-7-5-12-12-12h-661c-7 0-13 5-13 12v73c0 7 6 13 13 13h135c13 0 24 11 24 24v98h147c13 0 24 11 24 25v98h160c13 0 24 11 24 24v98h147c7 0 12-5 12-12v-441z" horiz-adv-x="1000" />

<glyph glyph-name="left" unicode="&#xe88c;" d="M1418 380h-1291l394 393a30 30 0 0 1-42 42l-444-444a30 30 0 0 1 0-42l444-444a30 30 0 0 1 42 42l-394 393h1291a30 30 0 1 1 0 60z" horiz-adv-x="1474" />

<glyph glyph-name="right" unicode="&#xe88d;" d="M56 380h1291l-394 393a30 30 0 1 0 42 42l444-444a30 30 0 0 0 0-42l-444-444a30 30 0 0 0-42 42l394 393h-1291a30 30 0 1 0 0 60z" horiz-adv-x="1474" />

<glyph glyph-name="close-(5)" unicode="&#xe88f;" d="M610 350l374 374c10 10 16 24 16 39 0 14-6 28-16 38l-33 33c-10 10-24 16-38 16-15 0-29-6-39-16l-374-374-374 374c-10 10-24 16-39 16-14 0-28-6-38-16l-33-33c-21-21-21-56 0-77l374-374-374-374c-10-10-16-24-16-39 0-14 6-28 16-38l33-33c10-10 24-16 38-16 15 0 29 6 39 16l374 374 374-374c10-10 24-16 39-16h0c14 0 28 6 38 16l33 33c10 10 16 24 16 38 0 15-6 29-16 39l-374 374z" horiz-adv-x="1000" />

<glyph glyph-name="open-menu" unicode="&#xe890;" d="M961 389h-922c-21 0-39-17-39-39 0-22 18-39 39-39h922c22 0 39 17 39 39s-17 39-39 39z m0 313h-922c-21 0-39-18-39-39s18-40 39-40h922c22 0 39 18 39 40s-17 39-39 39z m0-625h-922c-21 0-39-18-39-39 0-22 18-40 39-40h922c22 0 39 18 39 40 0 21-17 39-39 39z" horiz-adv-x="1000" />
</font>
</defs>
</svg>
